<svg xmlns="http://www.w3.org/2000/svg" viewBox="0 0 1200 400" width="1200" height="400">
  <defs>
    <linearGradient id="bg" x1="0%" y1="0%" x2="100%" y2="100%">
      <stop offset="0%" stop-color="#0A0917"/>
      <stop offset="100%" stop-color="#0F0E1F"/>
    </linearGradient>
    <linearGradient id="screenGlow1" x1="0%" y1="0%" x2="0%" y2="100%">
      <stop offset="0%" stop-color="#1a1740"/>
      <stop offset="100%" stop-color="#07061A"/>
    </linearGradient>
    <linearGradient id="screenGlow2" x1="0%" y1="0%" x2="0%" y2="100%">
      <stop offset="0%" stop-color="#051A14"/>
      <stop offset="100%" stop-color="#020D0A"/>
    </linearGradient>
    <filter id="glow">
      <feGaussianBlur stdDeviation="3" result="coloredBlur"/>
      <feMerge><feMergeNode in="coloredBlur"/><feMergeNode in="SourceGraphic"/></feMerge>
    </filter>
    <filter id="softglow">
      <feGaussianBlur stdDeviation="8" result="coloredBlur"/>
      <feMerge><feMergeNode in="coloredBlur"/><feMergeNode in="SourceGraphic"/></feMerge>
    </filter>
  </defs>

  <!-- Background -->
  <rect width="1200" height="400" fill="url(#bg)"/>

  <!-- Subtle dot grid -->
  <pattern id="dots" x="0" y="0" width="30" height="30" patternUnits="userSpaceOnUse">
    <circle cx="15" cy="15" r="0.8" fill="#1E1B35" opacity="0.8"/>
  </pattern>
  <rect width="1200" height="400" fill="url(#dots)"/>

  <!-- Horizontal rule lines (terminal feel) -->
  <line x1="0" y1="380" x2="1200" y2="380" stroke="#1E1B35" stroke-width="1"/>
  <line x1="0" y1="20" x2="1200" y2="20" stroke="#1E1B35" stroke-width="1"/>

  <!-- ===== LEFT MONITOR — Python/ML Terminal ===== -->
  <rect x="48" y="50" width="300" height="280" rx="8" fill="#08071A" stroke="#1E1B35" stroke-width="1.5"/>
  <!-- titlebar -->
  <rect x="48" y="50" width="300" height="28" rx="8" fill="#13112A"/>
  <rect x="48" y="64" width="300" height="14" fill="#13112A"/>
  <!-- traffic lights -->
  <circle cx="68" cy="64" r="5" fill="#993C1D"/>
  <circle cx="84" cy="64" r="5" fill="#854F0B"/>
  <circle cx="100" cy="64" r="5" fill="#3B6D11"/>
  <!-- tab label -->
  <text x="190" y="69" text-anchor="middle" font-family="'Courier New', monospace" font-size="9" fill="#534AB7" letter-spacing="1">train.py — python3</text>

  <!-- code content -->
  <text x="64" y="100" font-family="'Courier New', monospace" font-size="10.5" fill="#534AB7">import</text>
  <text x="104" y="100" font-family="'Courier New', monospace" font-size="10.5" fill="#AFA9EC"> torch, fastapi</text>
  <text x="64" y="116" font-family="'Courier New', monospace" font-size="10.5" fill="#534AB7">from</text>
  <text x="93" y="116" font-family="'Courier New', monospace" font-size="10.5" fill="#AFA9EC"> sklearn </text>
  <text x="147" y="116" font-family="'Courier New', monospace" font-size="10.5" fill="#534AB7">import</text>
  <text x="187" y="116" font-family="'Courier New', monospace" font-size="10.5" fill="#AFA9EC"> Pipeline</text>

  <text x="64" y="140" font-family="'Courier New', monospace" font-size="10.5" fill="#888780">  </text>
  <text x="64" y="156" font-family="'Courier New', monospace" font-size="10.5" fill="#0F6E56">@</text>
  <text x="72" y="156" font-family="'Courier New', monospace" font-size="10.5" fill="#5DCAA5">app.post</text>
  <text x="116" y="156" font-family="'Courier New', monospace" font-size="10.5" fill="#AFA9EC">("/predict")</text>

  <text x="64" y="172" font-family="'Courier New', monospace" font-size="10.5" fill="#534AB7">async def</text>
  <text x="116" y="172" font-family="'Courier New', monospace" font-size="10.5" fill="#9FE1CB"> predict</text>
  <text x="162" y="172" font-family="'Courier New', monospace" font-size="10.5" fill="#AFA9EC">(data):</text>

  <text x="80" y="188" font-family="'Courier New', monospace" font-size="10.5" fill="#AFA9EC">result </text>
  <text x="120" y="188" font-family="'Courier New', monospace" font-size="10.5" fill="#534AB7">= </text>
  <text x="132" y="188" font-family="'Courier New', monospace" font-size="10.5" fill="#5DCAA5">model.run</text>
  <text x="186" y="188" font-family="'Courier New', monospace" font-size="10.5" fill="#AFA9EC">(data)</text>

  <text x="80" y="204" font-family="'Courier New', monospace" font-size="10.5" fill="#534AB7">return </text>
  <text x="122" y="204" font-family="'Courier New', monospace" font-size="10.5" fill="#AFA9EC">{"pred": result}</text>

  <!-- divider -->
  <line x1="64" y1="220" x2="330" y2="220" stroke="#1E1B35" stroke-width="0.8"/>

  <!-- terminal output -->
  <text x="64" y="238" font-family="'Courier New', monospace" font-size="10" fill="#888780">▶ running training loop...</text>
  <text x="64" y="254" font-family="'Courier New', monospace" font-size="10" fill="#5DCAA5">epoch 48/50  loss: 0.0182 ✓</text>
  <text x="64" y="270" font-family="'Courier New', monospace" font-size="10" fill="#5DCAA5">epoch 49/50  loss: 0.0171 ✓</text>
  <text x="64" y="286" font-family="'Courier New', monospace" font-size="10" fill="#63991F">✓ model saved → ./ckpt/final</text>
  <text x="64" y="302" font-family="'Courier New', monospace" font-size="10" fill="#888780">accuracy: <tspan fill="#FAC775">97.4%</tspan></text>

  <text x="64" y="318" font-family="'Courier New', monospace" font-size="10" fill="#5DCAA5">$ <tspan fill="#7F77DD">█</tspan></text>

  <!-- Screen ambient glow -->
  <rect x="48" y="50" width="300" height="280" rx="8" fill="url(#screenGlow1)" opacity="0.3"/>


  <!-- ===== CENTER — Big architecture diagram / system design ===== -->
  <!-- large monitor frame -->
  <rect x="395" y="30" width="410" height="310" rx="10" fill="#06050F" stroke="#2A2650" stroke-width="2"/>
  <rect x="395" y="30" width="410" height="32" rx="10" fill="#11102A"/>
  <rect x="395" y="48" width="410" height="14" fill="#11102A"/>
  <circle cx="415" cy="46" r="5" fill="#993C1D"/>
  <circle cx="431" cy="46" r="5" fill="#854F0B"/>
  <circle cx="447" cy="46" r="5" fill="#3B6D11"/>
  <text x="600" y="50" text-anchor="middle" font-family="'Courier New', monospace" font-size="9" fill="#534AB7" letter-spacing="1">dropouts-arch.canvas</text>

  <!-- system diagram inside -->
  <!-- row 1: client -->
  <rect x="530" y="75" width="140" height="34" rx="5" fill="#0D0B1F" stroke="#534AB7" stroke-width="1.2"/>
  <text x="600" y="89" text-anchor="middle" font-family="'Courier New', monospace" font-size="9" fill="#AFA9EC">CLIENT</text>
  <text x="600" y="101" text-anchor="middle" font-family="'Courier New', monospace" font-size="8" fill="#534AB7">React · Framer Motion</text>

  <!-- arrow down -->
  <line x1="600" y1="109" x2="600" y2="128" stroke="#2A2650" stroke-width="1.2" stroke-dasharray="4,3"/>
  <polygon points="595,126 600,134 605,126" fill="#2A2650"/>

  <!-- row 2: API gateway -->
  <rect x="530" y="134" width="140" height="34" rx="5" fill="#0D0B1F" stroke="#0F6E56" stroke-width="1.2"/>
  <text x="600" y="148" text-anchor="middle" font-family="'Courier New', monospace" font-size="9" fill="#9FE1CB">API GATEWAY</text>
  <text x="600" y="160" text-anchor="middle" font-family="'Courier New', monospace" font-size="8" fill="#0F6E56">FastAPI · Auth · Rate limit</text>

  <!-- arrow down splits -->
  <line x1="600" y1="168" x2="600" y2="183" stroke="#2A2650" stroke-width="1.2" stroke-dasharray="4,3"/>
  <!-- left branch -->
  <line x1="500" y1="183" x2="700" y2="183" stroke="#2A2650" stroke-width="1.2" stroke-dasharray="4,3"/>
  <line x1="500" y1="183" x2="500" y2="196" stroke="#2A2650" stroke-width="1.2" stroke-dasharray="4,3"/>
  <polygon points="495,194 500,202 505,194" fill="#2A2650"/>
  <line x1="700" y1="183" x2="700" y2="196" stroke="#2A2650" stroke-width="1.2" stroke-dasharray="4,3"/>
  <polygon points="695,194 700,202 705,194" fill="#2A2650"/>

  <!-- row 3 left: ML service -->
  <rect x="420" y="202" width="155" height="34" rx="5" fill="#0D0B1F" stroke="#7F77DD" stroke-width="1.2"/>
  <text x="497" y="216" text-anchor="middle" font-family="'Courier New', monospace" font-size="9" fill="#AFA9EC">ML SERVICE</text>
  <text x="497" y="228" text-anchor="middle" font-family="'Courier New', monospace" font-size="8" fill="#7F77DD">scikit · torch · inference</text>

  <!-- row 3 right: data store -->
  <rect x="622" y="202" width="155" height="34" rx="5" fill="#0D0B1F" stroke="#F0997B" stroke-width="1.2"/>
  <text x="699" y="216" text-anchor="middle" font-family="'Courier New', monospace" font-size="9" fill="#F5C4B3">DATA STORE</text>
  <text x="699" y="228" text-anchor="middle" font-family="'Courier New', monospace" font-size="8" fill="#993C1D">Postgres · Redis · S3</text>

  <!-- bottom merge arrows -->
  <line x1="497" y1="236" x2="497" y2="258" stroke="#2A2650" stroke-width="1.2" stroke-dasharray="4,3"/>
  <line x1="699" y1="236" x2="699" y2="258" stroke="#2A2650" stroke-width="1.2" stroke-dasharray="4,3"/>
  <line x1="497" y1="258" x2="699" y2="258" stroke="#2A2650" stroke-width="1.2" stroke-dasharray="4,3"/>
  <line x1="600" y1="258" x2="600" y2="270" stroke="#2A2650" stroke-width="1.2" stroke-dasharray="4,3"/>
  <polygon points="595,268 600,276 605,268" fill="#2A2650"/>

  <!-- deploy box -->
  <rect x="530" y="276" width="140" height="34" rx="5" fill="#0D0B1F" stroke="#63991F" stroke-width="1.2"/>
  <text x="600" y="290" text-anchor="middle" font-family="'Courier New', monospace" font-size="9" fill="#97C459">DEPLOYED</text>
  <text x="600" y="302" text-anchor="middle" font-family="'Courier New', monospace" font-size="8" fill="#3B6D11">Docker · GH Actions · Vercel</text>

  <!-- status dot -->
  <circle cx="410" cy="300" r="5" fill="#5DCAA5" opacity="0.9" filter="url(#glow)"/>
  <text x="420" y="304" font-family="'Courier New', monospace" font-size="9" fill="#5DCAA5">live</text>


  <!-- ===== RIGHT MONITOR — Git/CI terminal ===== -->
  <rect x="852" y="50" width="300" height="280" rx="8" fill="#06050F" stroke="#1E1B35" stroke-width="1.5"/>
  <rect x="852" y="50" width="300" height="28" rx="8" fill="#0D0B1F"/>
  <rect x="852" y="64" width="300" height="14" fill="#0D0B1F"/>
  <circle cx="872" cy="64" r="5" fill="#993C1D"/>
  <circle cx="888" cy="64" r="5" fill="#854F0B"/>
  <circle cx="904" cy="64" r="5" fill="#3B6D11"/>
  <text x="1002" y="69" text-anchor="middle" font-family="'Courier New', monospace" font-size="9" fill="#534AB7" letter-spacing="1">zsh — dropoutscore</text>

  <!-- git log style -->
  <text x="868" y="98" font-family="'Courier New', monospace" font-size="9.5" fill="#7F77DD">●</text>
  <text x="882" y="98" font-family="'Courier New', monospace" font-size="9.5" fill="#5DCAA5">a3f1c2d</text>
  <text x="930" y="98" font-family="'Courier New', monospace" font-size="9.5" fill="#AFA9EC"> fix: model drift</text>

  <text x="868" y="114" font-family="'Courier New', monospace" font-size="9.5" fill="#534AB7">●</text>
  <text x="882" y="114" font-family="'Courier New', monospace" font-size="9.5" fill="#5DCAA5">9d2e881</text>
  <text x="930" y="114" font-family="'Courier New', monospace" font-size="9.5" fill="#AFA9EC"> feat: clutch index</text>

  <text x="868" y="130" font-family="'Courier New', monospace" font-size="9.5" fill="#534AB7">●</text>
  <text x="882" y="130" font-family="'Courier New', monospace" font-size="9.5" fill="#5DCAA5">7c0a33f</text>
  <text x="930" y="130" font-family="'Courier New', monospace" font-size="9.5" fill="#AFA9EC"> refactor: pipeline</text>

  <text x="868" y="146" font-family="'Courier New', monospace" font-size="9.5" fill="#534AB7">●</text>
  <text x="882" y="146" font-family="'Courier New', monospace" font-size="9.5" fill="#5DCAA5">1e9b54a</text>
  <text x="930" y="146" font-family="'Courier New', monospace" font-size="9.5" fill="#888780"> chore: add coffee</text>

  <line x1="868" y1="158" x2="1135" y2="158" stroke="#1E1B35" stroke-width="0.8"/>

  <!-- CI/CD output -->
  <text x="868" y="175" font-family="'Courier New', monospace" font-size="9.5" fill="#888780">$ gh workflow run deploy.yml</text>

  <text x="868" y="193" font-family="'Courier New', monospace" font-size="9.5" fill="#63991F">✓</text>
  <text x="880" y="193" font-family="'Courier New', monospace" font-size="9.5" fill="#AFA9EC"> build — passed (42s)</text>

  <text x="868" y="209" font-family="'Courier New', monospace" font-size="9.5" fill="#63991F">✓</text>
  <text x="880" y="209" font-family="'Courier New', monospace" font-size="9.5" fill="#AFA9EC"> tests — 148/148 passed</text>

  <text x="868" y="225" font-family="'Courier New', monospace" font-size="9.5" fill="#63991F">✓</text>
  <text x="880" y="225" font-family="'Courier New', monospace" font-size="9.5" fill="#AFA9EC"> deploy — vercel (prod)</text>

  <text x="868" y="241" font-family="'Courier New', monospace" font-size="9.5" fill="#FAC775">→</text>
  <text x="880" y="241" font-family="'Courier New', monospace" font-size="9.5" fill="#FAC775"> dropoutscore.dev</text>

  <line x1="868" y1="253" x2="1135" y2="253" stroke="#1E1B35" stroke-width="0.8"/>

  <!-- npm/node status -->
  <text x="868" y="270" font-family="'Courier New', monospace" font-size="9.5" fill="#888780">$ node --version</text>
  <text x="868" y="286" font-family="'Courier New', monospace" font-size="9.5" fill="#5DCAA5">v22.4.1</text>
  <text x="868" y="302" font-family="'Courier New', monospace" font-size="9.5" fill="#888780">$ python --version</text>
  <text x="868" y="318" font-family="'Courier New', monospace" font-size="9.5" fill="#5DCAA5">Python 3.12.3</text>

  <!-- blinking cursor -->
  <rect x="868" y="324" width="7" height="11" rx="1" fill="#7F77DD" opacity="0.9"/>

  <!-- Monitor screen glow right -->
  <rect x="852" y="50" width="300" height="280" rx="8" fill="url(#screenGlow1)" opacity="0.15"/>

  <!-- ===== BOTTOM AREA — Brand strip ===== -->
  <line x1="48" y1="350" x2="1152" y2="350" stroke="#1E1B35" stroke-width="0.8"/>

  <!-- Logo mark small -->
  <rect x="48" y="360" width="28" height="28" rx="5" fill="#0D0C1A" stroke="#2A2650" stroke-width="1"/>
  <text x="62" y="379" text-anchor="middle" font-family="'Courier New', monospace" font-size="13" font-weight="700" fill="#7F77DD">D</text>

  <text x="82" y="379" font-family="'Courier New', monospace" font-size="11" font-weight="700" fill="#AFA9EC" letter-spacing="2">DROPOUTSCORE</text>

  <text x="280" y="379" font-family="'Courier New', monospace" font-size="9" fill="#534AB7">·</text>
  <text x="292" y="379" font-family="'Courier New', monospace" font-size="9" fill="#888780">DropOuts by name. Proven by code.</text>

  <!-- right side: stack tags -->
  <rect x="950" y="362" width="48" height="16" rx="3" fill="#0D0B1F" stroke="#534AB7" stroke-width="0.8"/>
  <text x="974" y="374" text-anchor="middle" font-family="'Courier New', monospace" font-size="7.5" fill="#7F77DD">python</text>

  <rect x="1004" y="362" width="38" height="16" rx="3" fill="#0D0B1F" stroke="#0F6E56" stroke-width="0.8"/>
  <text x="1023" y="374" text-anchor="middle" font-family="'Courier New', monospace" font-size="7.5" fill="#5DCAA5">react</text>

  <rect x="1048" y="362" width="46" height="16" rx="3" fill="#0D0B1F" stroke="#993C1D" stroke-width="0.8"/>
  <text x="1071" y="374" text-anchor="middle" font-family="'Courier New', monospace" font-size="7.5" fill="#F0997B">fastapi</text>

  <rect x="1100" y="362" width="52" height="16" rx="3" fill="#0D0B1F" stroke="#3B6D11" stroke-width="0.8"/>
  <text x="1126" y="374" text-anchor="middle" font-family="'Courier New', monospace" font-size="7.5" fill="#97C459">docker</text>
</svg>
